<?xml version="1.0" encoding="utf-8"?>
<!-- Generator: Adobe Illustrator 16.0.0, SVG Export Plug-In . SVG Version: 6.00 Build 0)  -->
<!DOCTYPE svg PUBLIC "-//W3C//DTD SVG 1.1//EN" "http://www.w3.org/Graphics/SVG/1.1/DTD/svg11.dtd">
<svg version="1.1" id="Layer_1" xmlns="http://www.w3.org/2000/svg" xmlns:xlink="http://www.w3.org/1999/xlink" x="0px" y="0px"
	 width="345.167px" height="2600px" viewBox="0 0 345.167 2600" enable-background="new 0 0 345.167 2600" xml:space="preserve">
<g id="Layer_2">
</g>
<g>
	<rect x="1.824" y="1302.67" fill="none" width="342" height="573.583"/>
	<g id="Layer_1_1_">
		<g>
			<path fill="none" stroke="#000000" d="M206.574,1600.253c78,11.25,137.25,65.25,137.25,135.75c0,90-75,140.25-171,140.25
				c-96,0-171-50.25-171-140.25c0-70.5,58.5-123.75,136.5-135.75"/>
		</g>
		<path fill="none" stroke="#000000" d="M206.574,1600.253h-68.25c-69-12-115.5-58.5-115.5-123.75c0-82.5,69-126.75,150-126.75
			c81,0,150,44.25,150,126.75C322.824,1541.753,275.574,1588.253,206.574,1600.253z"/>
	</g>
	<rect x="1.824" y="1306.779" fill="none" width="342" height="366.177"/>
</g>
</svg>
