<?xml version="1.0" encoding="utf-8"?>
<!-- Generator: Adobe Illustrator 16.0.0, SVG Export Plug-In . SVG Version: 6.00 Build 0)  -->
<!DOCTYPE svg PUBLIC "-//W3C//DTD SVG 1.1//EN" "http://www.w3.org/Graphics/SVG/1.1/DTD/svg11.dtd">
<svg version="1.1" id="Layer_1" xmlns="http://www.w3.org/2000/svg" xmlns:xlink="http://www.w3.org/1999/xlink" x="0px" y="0px"
	 width="668.614px" height="2600px" viewBox="0 0 668.614 2600" enable-background="new 0 0 668.614 2600" xml:space="preserve">
<path fill="none" stroke="#231F20" d="M448.614,1759.083c-14.25,66-66.75,117-150,117c-69,0-108-38.25-108-95.25
	s33.75-87.75,104.25-99l100.5-15.75c32.25-5.25,53.25-14.25,53.25-38.25"/>
<path fill="none" stroke="#231F20" d="M202.614,1618.833c6-81,60-119.25,129-119.25c72,0,117,41.25,117,128.25v131.25v30.75
	c0,57,42,81,85.5,81c73.5,0,133.5-63,133.5-204c0-192-153-312-330-312c-186,0-336,132-336,339s147,342,324,342
	c102,0,168.75-36,216-90"/>
</svg>
